<?xml version="1.0" standalone="no"?><!DOCTYPE svg PUBLIC "-//W3C//DTD SVG 1.1//EN" "http://www.w3.org/Graphics/SVG/1.1/DTD/svg11.dtd"><svg t="1700616107093" class="icon" viewBox="0 0 1060 1024" version="1.1" xmlns="http://www.w3.org/2000/svg" p-id="16433" xmlns:xlink="http://www.w3.org/1999/xlink" width="207.03125" height="200"><path d="M1026.814359 793.303051c0 130.507847-98.941417 229.449264-221.002437 229.449264H225.713277c-122.048543 0-221.002437-98.941417-221.002437-207.839361V234.801833c0-135.211619 98.941417-234.153036 221.002437-234.153037h580.111122c122.048543 0 221.002437 98.941417 221.002437 212.543133v580.111122z m0 0" fill="#549df8" p-id="16434" data-spm-anchor-id="a313x.search_index.0.i32.2c6a3a81MDswpM" class="selected"></path><path d="M477.196657 528.145043l227.590214-72.939662 113.002827 28.721707v-224.957598c0-6.949605-2.5328-12.95097-7.598402-18.041524-5.078078-5.065601-11.091919-7.610878-18.029047-7.610879h-410.363584c-6.949605 0-12.963447 2.545277-18.029047 7.610879-5.078078 5.078078-7.610878 11.091919-7.610879 18.041524v76.944732h-64.11853c-7.211619 0-15.034604 1.734282-23.444 5.215323-8.421873 3.468564-15.159372 7.748124-20.23745 12.826201l-79.352764 79.340287c-3.468564 3.481041-6.475485 7.473633-9.020762 12.027683-2.5328 4.541573-4.404328 8.621503-5.614582 12.214836-1.210254 3.618286-2.071157 8.546642-2.607662 14.834974-0.524028 6.275855-0.873379 10.89229-0.998148 13.824349-0.137245 2.93206-0.137245 8.010137 0 15.221757 0.124768 7.224096 0.19963 11.890438 0.19963 14.036455V643.680671c-6.949605 0-12.95097 2.5328-18.029048 7.610878-5.078078 5.065601-7.623355 11.079442-7.623355 18.029048 0 4.005069 0.536505 7.548494 1.597037 10.617799 1.073009 3.069305 2.869675 5.539721 5.414953 7.423725 2.5328 1.871527 4.741203 3.40618 6.61273 4.616434 1.871527 1.197778 5.015694 1.996296 9.420021 2.408032 4.404328 0.399259 7.411249 0.661273 9.020763 0.798519 1.597037 0.124768 5.003217 0.124768 10.206063 0 5.215323-0.137245 8.222244-0.19963 9.020762-0.19963h25.652403c0 28.309972 10.01891 52.490106 30.05673 72.527927 20.03782 20.03782 44.217955 30.056731 72.540404 30.056731 28.322449 0 52.502583-10.01891 72.527927-30.056731 20.03782-20.025344 30.056731-44.217955 30.05673-72.527927h69.758066V528.145043zM202.506337 492.748221v-12.015206c0-3.468564 1.197778-6.413101 3.605809-8.821133l78.142509-78.142509c2.408032-2.408032 5.352568-3.60581 8.821133-3.605809h63.320012v102.584657H202.506337z m138.655229 240.815674c-10.143679 10.156156-22.171362 15.234233-36.070572 15.234233s-25.914417-5.078078-36.070572-15.234233c-10.156156-10.143679-15.221757-22.171362-15.221757-36.058095 0-13.886734 5.078078-25.914417 15.221757-36.070572 10.156156-10.156156 22.171362-15.234233 36.070572-15.234234s25.914417 5.078078 36.070572 15.234234 15.234233 22.183839 15.234234 36.070572c0 13.886734-5.078078 25.914417-15.234234 36.058095z m0 0" fill="#ffffff" p-id="16435" data-spm-anchor-id="a313x.search_index.0.i28.2c6a3a81MDswpM" class=""></path><path d="M904.952969 545.612633l-184.133346-50.955454s-7.96023-1.921435-10.717614-1.921435c-2.744907 0-11.017058 2.046203-11.017058 2.046204l-56.79462 15.695876 196.285798 53.051565 66.37684-17.916756z m-208.388342 69.545959L515.288479 565.66293v192.605127s2.857199 20.94863 9.469929 27.561361c6.61273 6.61273 18.877473 13.487474 18.877473 13.487474l135.423726 36.981383s12.090067 3.580856 15.284141 2.05868c3.194073-1.522176 2.220879-6.088703 2.220879-6.088703V615.158592z m-105.541671-90.49459l-75.759431 20.948631 194.788576 52.652305 76.657764-20.699093-195.686909-52.901843zM905.614242 738.005654V565.66293l-57.518277 15.708354V665.016083l-37.892192 10.268448v-83.557462l-86.589336 23.64363v199.155473s-0.511551 19.938006 1.996296 23.518862c2.5328 3.60581 15.121942-1.447315 15.121941-1.447315l121.699191-33.22585s25.689833-6.737499 35.122332-16.169997c9.432498-9.444975 8.060045-49.196218 8.060045-49.196218z m0 0" fill="#ffffff" p-id="16436" data-spm-anchor-id="a313x.search_index.0.i29.2c6a3a81MDswpM" class=""></path></svg>