<?xml version="1.0" standalone="no"?><!DOCTYPE svg PUBLIC "-//W3C//DTD SVG 1.1//EN" "http://www.w3.org/Graphics/SVG/1.1/DTD/svg11.dtd"><svg t="1700617133133" class="icon" viewBox="0 0 1024 1024" version="1.1" xmlns="http://www.w3.org/2000/svg" p-id="29614" xmlns:xlink="http://www.w3.org/1999/xlink" width="200" height="200"><path d="M186.24 0h651.52Q1024 0 1024 186.24v651.52Q1024 1024 837.76 1024H186.24Q0 1024 0 837.76V186.24Q0 0 186.24 0z" fill="#549df8" p-id="29615" data-spm-anchor-id="a313x.search_index.0.i69.2c6a3a81MDswpM" class="selected"></path><path d="M747.52 272.96h-52.16a28.8 28.8 0 0 0 0 57.6h52.16c-2.24 0 0 2.88 0 1.92v399.36s-2.24 1.92 0 1.92H276.48c2.24 0 0-2.88 0-1.92V332.48s2.24-1.92 0-1.92h52.16a28.8 28.8 0 0 0 0-57.6H276.48A59.84 59.84 0 0 0 224 332.48v399.36a59.52 59.52 0 0 0 52.48 59.52h471.04A59.52 59.52 0 0 0 800 731.84V332.48a59.84 59.84 0 0 0-52.48-59.52z" fill="#FFFFFF" p-id="29616"></path><path d="M653.44 405.44h-41.92v-144a26.24 26.24 0 1 0-52.48 0v144h-41.92a5.44 5.44 0 0 0-5.12 5.76 7.36 7.36 0 0 0 0 4.8l68.16 99.84a4.8 4.8 0 0 0 7.36 0L657.6 416a6.72 6.72 0 0 0 0-8.32 6.08 6.08 0 0 0-4.16-2.24zM370.56 344h41.92v144a26.24 26.24 0 1 0 52.48 0v-144h41.92a5.44 5.44 0 0 0 5.12-5.76 6.4 6.4 0 0 0 0-3.52l-69.12-99.84a5.12 5.12 0 0 0-7.36 0l-68.16 99.84a6.4 6.4 0 0 0 0 8 4.48 4.48 0 0 0 3.2 1.28zM328.64 618.56a27.52 27.52 0 0 0 26.24 28.8h314.24a28.8 28.8 0 0 0 0-57.6h-314.24a27.52 27.52 0 0 0-26.24 28.8z" fill="#FFFFFF" p-id="29617"></path></svg>