<?xml version="1.0" standalone="no"?><!DOCTYPE svg PUBLIC "-//W3C//DTD SVG 1.1//EN" "http://www.w3.org/Graphics/SVG/1.1/DTD/svg11.dtd"><svg t="1700616741147" class="icon" viewBox="0 0 1024 1024" version="1.1" xmlns="http://www.w3.org/2000/svg" p-id="22439" xmlns:xlink="http://www.w3.org/1999/xlink" width="200" height="200"><path d="M186.24 0h651.52Q1024 0 1024 186.24v651.52Q1024 1024 837.76 1024H186.24Q0 1024 0 837.76V186.24Q0 0 186.24 0z" fill="#549df8" p-id="22440" data-spm-anchor-id="a313x.search_index.0.i49.2c6a3a81MDswpM" class="selected"></path><path d="M591.04 456.96a10.88 10.88 0 0 0-11.52-10.24h-137.28a10.24 10.24 0 1 0 0 20.48h137.28a10.56 10.56 0 0 0 11.52-10.24z m-23.36 64a10.88 10.88 0 0 0-11.2-10.24h-114.24a10.56 10.56 0 1 0 0 20.8h113.92a11.2 11.2 0 0 0 11.52-12.16z m-125.44 52.16a10.56 10.56 0 1 0 0 20.8H512a10.56 10.56 0 1 0 0-20.8z" fill="#FFFFFF" p-id="22441"></path><path d="M556.48 644.8h-137.92a11.2 11.2 0 0 1-11.52-10.56V425.6a10.88 10.88 0 0 1 11.52-10.24h184a10.88 10.88 0 0 1 11.52 10.24v83.52a11.52 11.52 0 0 0 22.72 0V416a22.08 22.08 0 0 0-23.04-20.8h-206.72A22.08 22.08 0 0 0 384 416v229.76a22.08 22.08 0 0 0 22.72 20.8h149.44a10.88 10.88 0 0 0 11.2-10.56 10.88 10.88 0 0 0-10.88-11.2zM224 312.32A87.68 87.68 0 0 1 311.68 224h87.36v43.2H313.6a44.16 44.16 0 0 0-44.8 45.12v88H224zM400.96 800H313.6a87.68 87.68 0 0 1-87.68-88.32v-88h44.8v88a44.16 44.16 0 0 0 44.8 45.12h87.36a311.04 311.04 0 0 0-1.92 43.2zM798.08 711.68A87.68 87.68 0 0 1 710.4 800h-87.36v-45.12h87.36a44.16 44.16 0 0 0 44.8-45.12v-88H800zM798.08 400.32h-44.8V312.32a44.16 44.16 0 0 0-44.8-45.12h-87.36V224h87.36a87.68 87.68 0 0 1 87.68 88.32z" fill="#FFFFFF" p-id="22442"></path><path d="M637.44 619.52h-38.08v13.76h38.08z m-38.08 41.28h38.08v-14.08h-38.08z m0-68.8v14.08h38.08v-14.08H672a10.56 10.56 0 0 0 0-16l-42.56-34.56a17.28 17.28 0 0 0-21.12 0L565.44 576a10.56 10.56 0 0 0 0 16.96z" fill="#FFFFFF" p-id="22443"></path></svg>