<?xml version="1.0" standalone="no"?><!DOCTYPE svg PUBLIC "-//W3C//DTD SVG 1.1//EN" "http://www.w3.org/Graphics/SVG/1.1/DTD/svg11.dtd"><svg t="1700616329798" class="icon" viewBox="0 0 1024 1024" version="1.1" xmlns="http://www.w3.org/2000/svg" p-id="21465" xmlns:xlink="http://www.w3.org/1999/xlink" width="200" height="200"><path d="M186.24 0h651.52Q1024 0 1024 186.24v651.52Q1024 1024 837.76 1024H186.24Q0 1024 0 837.76V186.24Q0 0 186.24 0z" fill="#549df8" p-id="21466" data-spm-anchor-id="a313x.search_index.0.i34.2c6a3a81MDswpM" class="selected"></path><path d="M513.6 433.28a18.88 18.88 0 0 0 19.2-18.24v-128L576 326.08a18.88 18.88 0 0 0 13.44 5.44 19.52 19.52 0 0 0 17.28-11.2 16.96 16.96 0 0 0-3.84-19.84l-75.84-71.04a18.88 18.88 0 0 0-26.56 0L425.6 300.8a17.6 17.6 0 0 0-7.36 18.56 18.88 18.88 0 0 0 15.04 14.08 19.84 19.84 0 0 0 19.2-7.36l42.24-40v128a19.2 19.2 0 0 0 18.88 18.24z" fill="#FFFFFF" p-id="21467"></path><path d="M279.36 800A54.4 54.4 0 0 1 224 746.88v-288a16.96 16.96 0 0 1 4.16-10.88l44.48-54.08a84.48 84.48 0 0 1 32-32 104.64 104.64 0 0 1 42.24-5.44h27.52a18.24 18.24 0 0 1 0 36.48h-27.52a76.16 76.16 0 0 0-25.6 1.6 69.44 69.44 0 0 0-17.6 19.84l-38.4 46.4h493.44L721.28 416a76.8 76.8 0 0 0-17.92-20.8 85.76 85.76 0 0 0-25.6-1.92h-27.52a19.2 19.2 0 0 1-17.92-8.64 17.28 17.28 0 0 1 0-19.2 19.52 19.52 0 0 1 17.92-8.32h27.52a98.56 98.56 0 0 1 41.92 5.44 82.88 82.88 0 0 1 32 32L795.84 448a16.96 16.96 0 0 1 4.16 9.92v288A54.4 54.4 0 0 1 744.64 800z m-11.84-66.56a25.6 25.6 0 0 0 26.24 24.96h436.8a27.2 27.2 0 0 0 18.56-7.36 25.28 25.28 0 0 0 7.68-17.6V502.4H267.52v231.04z" fill="#FFFFFF" p-id="21468"></path><path d="M594.24 605.12a78.08 78.08 0 0 0-52.48-17.6h-83.84l24.96-21.76a15.04 15.04 0 0 0 1.92-20.48 12.8 12.8 0 0 0-9.28-5.44 13.44 13.44 0 0 0-8.96 3.2l-46.72 40.64a25.92 25.92 0 0 0 0 35.52l47.36 41.28a13.44 13.44 0 0 0 10.24 3.52 14.72 14.72 0 0 0 7.68-25.92l-24.96-22.08h83.52a64 64 0 0 1 27.2 5.76 32 32 0 0 1 17.6 30.08 40 40 0 0 1-44.8 38.72H480a14.4 14.4 0 0 0-14.08 14.72 14.08 14.08 0 0 0 14.08 14.72h62.08a76.16 76.16 0 0 0 52.16-18.88 66.24 66.24 0 0 0 20.48-49.28 62.08 62.08 0 0 0-20.48-46.72z" fill="#FFFFFF" p-id="21469"></path></svg>