<?xml version="1.0" standalone="no"?><!DOCTYPE svg PUBLIC "-//W3C//DTD SVG 1.1//EN" "http://www.w3.org/Graphics/SVG/1.1/DTD/svg11.dtd"><svg t="1702607710573" class="icon" viewBox="0 0 1024 1024" version="1.1" xmlns="http://www.w3.org/2000/svg" p-id="28030" xmlns:xlink="http://www.w3.org/1999/xlink" width="200" height="200"><path d="M186.026667 0h651.946666Q1024 0 1024 186.026667v651.946666Q1024 1024 837.973333 1024H186.026667Q0 1024 0 837.973333V186.026667Q0 0 186.026667 0z" fill="#549df8" p-id="28031" data-spm-anchor-id="a313x.search_index.0.i29.285b3a81kS5rNv" class=""></path><path d="M374.186667 597.333333h90.453333v136.96H554.666667V597.333333h90.453333l-136.106667-136.106666zM314.026667 223.573333L256 359.68h512l-62.72-136.106667z" fill="#549df8" p-id="28032" data-spm-anchor-id="a313x.search_index.0.i30.285b3a81kS5rNv" class=""></path><path d="M346.026667 244.906667V298.666667h331.946666V244.906667H810.666667V810.666667H213.333333V244.906667z m250.88 128l-42.666667 37.973333 81.92 70.4 42.666667-37.973333L597.333333 373.333333zM341.333333 590.506667v71.253333h85.333334l-85.333334-71.253333zM533.333333 426.666667l-174.933333 148.053333 81.92 70.4 175.36-149.76z m-220.586666 259.413333v56.746667h398.506666v-56.746667z m265.813333-98.986667v56.746667h132.693333v-56.746667z" fill="#FFFFFF" p-id="28033"></path><path d="M384 213.333333h269.653333v58.88H384z" fill="#FFFFFF" p-id="28034"></path></svg>