<?xml version="1.0" standalone="no"?><!DOCTYPE svg PUBLIC "-//W3C//DTD SVG 1.1//EN" "http://www.w3.org/Graphics/SVG/1.1/DTD/svg11.dtd"><svg t="1700616617949" class="icon" viewBox="0 0 1024 1024" version="1.1" xmlns="http://www.w3.org/2000/svg" p-id="22168" xmlns:xlink="http://www.w3.org/1999/xlink" width="200" height="200"><path d="M186.24 0h651.52Q1024 0 1024 186.24v651.52Q1024 1024 837.76 1024H186.24Q0 1024 0 837.76V186.24Q0 0 186.24 0z" fill="#549df8" p-id="22169" data-spm-anchor-id="a313x.search_index.0.i46.2c6a3a81MDswpM" class="selected"></path><path d="M580.48 683.2a32 32 0 0 0 32 0 12.8 12.8 0 0 0 0-22.72l-84.8-58.24a32 32 0 0 0-32 0l-84.8 58.24a13.12 13.12 0 0 0 0 22.72 32 32 0 0 0 32 0l45.12-32v129.92a24.32 24.32 0 0 0 46.72 0v-128.96z" fill="#FFFFFF" p-id="22170"></path><path d="M768 347.84a13.76 13.76 0 0 0-1.92-7.04 16.64 16.64 0 0 0-4.8-5.76l-136.96-105.92-4.48-2.24h-2.88A40.32 40.32 0 0 0 608 224h-282.24A64 64 0 0 0 256 278.08v467.84A64 64 0 0 0 325.76 800h101.44a18.56 18.56 0 1 0 0-35.84h-101.44a21.44 21.44 0 0 1-23.36-18.24V278.08a21.12 21.12 0 0 1 23.36-17.92h258.88v87.68a21.12 21.12 0 0 0 23.36 17.92h113.6v380.16a21.44 21.44 0 0 1-23.36 18.24h-96a18.56 18.56 0 1 0 0 35.84h96A64 64 0 0 0 768 745.92V347.84z m-136.64-17.92V285.44l57.28 44.48z" fill="#FFFFFF" p-id="22171"></path><path d="M397.12 529.92h229.76a21.12 21.12 0 0 0 23.36-17.92 21.12 21.12 0 0 0-23.36-17.92h-229.76a21.12 21.12 0 0 0-23.36 17.92 21.12 21.12 0 0 0 23.36 17.92zM397.12 432.32h229.76a21.12 21.12 0 0 0 23.36-17.92 21.44 21.44 0 0 0-23.36-18.24h-229.76a21.44 21.44 0 0 0-23.36 18.24 21.12 21.12 0 0 0 23.36 17.92z" fill="#FFFFFF" p-id="22172"></path></svg>