<?xml version="1.0" standalone="no"?><!DOCTYPE svg PUBLIC "-//W3C//DTD SVG 1.1//EN" "http://www.w3.org/Graphics/SVG/1.1/DTD/svg11.dtd"><svg t="1700616887602" class="icon" viewBox="0 0 1024 1024" version="1.1" xmlns="http://www.w3.org/2000/svg" p-id="23599" xmlns:xlink="http://www.w3.org/1999/xlink" width="200" height="200"><path d="M186.24 0h651.52Q1024 0 1024 186.24v651.52Q1024 1024 837.76 1024H186.24Q0 1024 0 837.76V186.24Q0 0 186.24 0z" fill="#549df8" p-id="23600" data-spm-anchor-id="a313x.search_index.0.i53.2c6a3a81MDswpM" class="selected"></path><path d="M640 356.8a22.08 22.08 0 0 0-22.72-21.76h-277.44a22.08 22.08 0 0 0-22.72 21.76 22.4 22.4 0 0 0 22.72 22.08h275.84a22.4 22.4 0 0 0 24.32-22.08z m-46.72 133.12a22.4 22.4 0 0 0-22.72-22.08h-230.72a22.4 22.4 0 0 0-22.72 22.08 22.08 22.08 0 0 0 22.72 21.76h228.8a22.08 22.08 0 0 0 23.04-21.76z m-251.84 110.4a22.08 22.08 0 1 0 0 44.16h137.92a22.08 22.08 0 1 0 0-44.16z" fill="#FFFFFF" p-id="23601"></path><path d="M568.96 755.84H292.48a22.4 22.4 0 0 1-22.72-22.08V290.56a22.08 22.08 0 0 1 22.72-21.76h369.28a22.08 22.08 0 0 1 22.72 21.76v177.28a23.04 23.04 0 0 0 45.76 0V268.16A45.44 45.44 0 0 0 684.16 224H269.76A45.12 45.12 0 0 0 224 268.16v487.68A45.12 45.12 0 0 0 269.76 800h299.2a22.08 22.08 0 1 0 0-44.16z" fill="#FFFFFF" p-id="23602"></path><path d="M777.92 623.04a99.84 99.84 0 0 0-67.52-22.4h-107.52l32-28.16a19.2 19.2 0 0 0 2.56-26.24 17.92 17.92 0 0 0-12.16-7.04h-1.92a18.88 18.88 0 0 0-11.52 4.16l-59.84 52.16a32 32 0 0 0 0 45.76l60.8 52.8a17.92 17.92 0 0 0 13.12 4.48 18.88 18.88 0 0 0 9.92-32l-32-28.16h106.56a81.28 81.28 0 0 1 34.88 7.36 39.68 39.68 0 0 1 22.72 38.4 51.52 51.52 0 0 1-57.6 49.92h-79.68a18.88 18.88 0 0 0 0 37.76h79.68a97.92 97.92 0 0 0 67.2-24.32 84.8 84.8 0 0 0 26.24-64 79.36 79.36 0 0 0-25.92-60.48z" fill="#FFFFFF" p-id="23603"></path></svg>