<?xml version="1.0" standalone="no"?><!DOCTYPE svg PUBLIC "-//W3C//DTD SVG 1.1//EN" "http://www.w3.org/Graphics/SVG/1.1/DTD/svg11.dtd"><svg t="1701735845358" class="icon" viewBox="0 0 1024 1024" version="1.1" xmlns="http://www.w3.org/2000/svg" p-id="1565" xmlns:xlink="http://www.w3.org/1999/xlink" width="200" height="200"><path d="M0 0m178.086957 0l667.826086 0q178.086957 0 178.086957 178.086957l0 667.826086q0 178.086957-178.086957 178.086957l-667.826086 0q-178.086957 0-178.086957-178.086957l0-667.826086q0-178.086957 178.086957-178.086957Z" fill="#549df8" p-id="1566" data-spm-anchor-id="a313x.search_index.0.i0.61d23a81JPYvLN" class="selected"></path><path d="M369.152 606.319304c39.446261 0 71.43513 31.209739 71.43513 69.698783 0 38.511304-31.98887 69.721043-71.43513 69.721043s-71.41287-31.209739-71.41287-69.721043c0-38.511304 31.966609-69.698783 71.41287-69.698783z m146.16487-302.08a20.48 20.48 0 0 1 20.48 20.48v307.600696a20.48 20.48 0 0 1-20.48 20.48h-53.938087c-10.573913-40.114087-47.86087-69.721043-92.226783-69.721043-44.365913 0-81.630609 29.606957-92.226783 69.698782h-30.118956a20.48 20.48 0 0 1-20.48-20.48V495.972174l0.133565-2.203826a17.586087 17.586087 0 0 1 13.178435-14.669913h-10.863304v-0.556522h15.404521l2.226087 0.133565c0.77913 0.089043 1.558261 0.222609 2.29287 0.445218h88.308869v47.593739l92.939131-71.41287-92.939131-71.43513v47.638261h-88.308869a18.298435 18.298435 0 0 1-4.518957 0.556521h-15.404521v-0.578782h10.863304a17.519304 17.519304 0 0 1-13.312-16.851478v-89.889392a20.48 20.48 0 0 1 20.48-20.48h268.510609z m-286.541913 127.777392v46.502956h-2.448696v-46.480695h2.448696z m426.073043 174.302608c39.446261 0 71.41287 31.209739 71.41287 69.698783 0 38.511304-31.966609 69.721043-71.41287 69.721043-39.446261 0-71.43513-31.209739-71.43513-69.721043 0-38.511304 31.98887-69.698783 71.43513-69.698783z m24.086261-209.140869l118.739478 134.010435v121.61113H747.074783c-10.596174-40.114087-47.86087-69.721043-92.226783-69.721043-44.365913 0-81.65287 29.606957-92.226783 69.698782h-3.005217V397.200696h119.318261z" fill="#ffffff" p-id="1567" data-spm-anchor-id="a313x.search_index.0.i1.61d23a81JPYvLN" class=""></path></svg>