<?xml version="1.0" standalone="no"?><!DOCTYPE svg PUBLIC "-//W3C//DTD SVG 1.1//EN" "http://www.w3.org/Graphics/SVG/1.1/DTD/svg11.dtd"><svg t="1700617314531" class="icon" viewBox="0 0 1024 1024" version="1.1" xmlns="http://www.w3.org/2000/svg" p-id="34321" xmlns:xlink="http://www.w3.org/1999/xlink" width="200" height="200"><path d="M186.026667 0h651.946666Q1024 0 1024 186.026667v651.946666Q1024 1024 837.973333 1024H186.026667Q0 1024 0 837.973333V186.026667Q0 0 186.026667 0z" fill="#549df8" p-id="34322" data-spm-anchor-id="a313x.search_index.0.i73.2c6a3a81MDswpM" class="selected"></path><path d="M768 335.786667V776.533333a23.893333 23.893333 0 0 1-24.32 23.893334H280.32A24.32 24.32 0 0 1 256 776.533333V335.786667a24.32 24.32 0 0 1 24.32-23.466667H341.333333V302.933333a12.8 12.8 0 0 1 12.8-13.653333H426.666667v-4.266667a85.333333 85.333333 0 0 1 85.333333-61.44 85.333333 85.333333 0 0 1 82.346667 61.44 16.213333 16.213333 0 0 0 0 4.266667h72.96a13.653333 13.653333 0 0 1 15.36 13.653333v9.386667h62.293333a23.466667 23.466667 0 0 1 23.04 23.466667z m-54.186667 410.026666v-384H682.666667v17.066667a12.8 12.8 0 0 1-13.653334 12.373333H355.413333A12.373333 12.373333 0 0 1 341.333333 378.026667v-17.066667h-31.573333v384z m-68.266666-402.346666v-5.973334a13.653333 13.653333 0 0 0-14.08-13.226666H391.68a13.653333 13.653333 0 0 0-14.08 13.226666v5.973334a13.653333 13.653333 0 0 0 14.08 12.373333h239.786667a13.653333 13.653333 0 0 0 14.08-12.373333zM465.066667 289.28h92.16A48.213333 48.213333 0 0 0 512 258.986667a49.493333 49.493333 0 0 0-46.933333 30.293333z" fill="#FFFFFF" p-id="34323"></path><path d="M635.306667 473.173333a20.053333 20.053333 0 0 1 0 29.44L491.093333 640a20.053333 20.053333 0 0 1-14.933333 5.973333 21.333333 21.333333 0 0 1-15.36-5.973333l-72.106667-68.693333a19.2 19.2 0 0 1 0-28.586667 22.613333 22.613333 0 0 1 30.72 0L476.16 597.333333l128-123.306666a22.613333 22.613333 0 0 1 31.146667-0.853334z" fill="#FFFFFF" p-id="34324"></path></svg>