<?xml version="1.0" standalone="no"?><!DOCTYPE svg PUBLIC "-//W3C//DTD SVG 1.1//EN" "http://www.w3.org/Graphics/SVG/1.1/DTD/svg11.dtd"><svg t="1700615704434" class="icon" viewBox="0 0 1024 1024" version="1.1" xmlns="http://www.w3.org/2000/svg" p-id="16216" xmlns:xlink="http://www.w3.org/1999/xlink" width="200" height="200"><path d="M186.24 0h651.52Q1024 0 1024 186.24v651.52Q1024 1024 837.76 1024H186.24Q0 1024 0 837.76V186.24Q0 0 186.24 0z" fill="#549df8" p-id="16217" data-spm-anchor-id="a313x.search_index.0.i22.2c6a3a81MDswpM" class="selected"></path><path d="M512 224a18.88 18.88 0 0 0-19.2 18.24v128l-41.92-40.32a20.16 20.16 0 0 0-13.44-5.12 18.88 18.88 0 0 0-17.28 11.2 17.28 17.28 0 0 0 3.84 19.84l74.56 71.04a19.2 19.2 0 0 0 26.56 0l74.88-71.68a16.96 16.96 0 0 0 7.04-18.56 18.24 18.24 0 0 0-14.72-13.76 19.2 19.2 0 0 0-19.2 7.36l-42.88 40.96v-128A18.88 18.88 0 0 0 512 224z" fill="#FFFFFF" p-id="16218" data-spm-anchor-id="a313x.search_index.0.i24.2c6a3a81MDswpM" class=""></path><path d="M279.36 800A54.4 54.4 0 0 1 224 746.88v-288a16.96 16.96 0 0 1 4.16-10.88l44.48-54.08a84.48 84.48 0 0 1 32-32 104.64 104.64 0 0 1 42.24-5.44h27.52a18.24 18.24 0 0 1 0 36.48h-27.52a76.16 76.16 0 0 0-25.6 1.6 69.44 69.44 0 0 0-17.6 19.84l-38.4 46.4h493.44L721.28 416a76.8 76.8 0 0 0-17.92-20.8 85.76 85.76 0 0 0-25.6-1.92h-27.52a19.2 19.2 0 0 1-17.92-8.64 17.28 17.28 0 0 1 0-19.2 19.52 19.52 0 0 1 17.92-8.32h27.52a98.56 98.56 0 0 1 41.92 5.44 82.88 82.88 0 0 1 32 32L795.84 448a16.96 16.96 0 0 1 4.16 9.92v288A54.4 54.4 0 0 1 744.64 800z m-11.84-66.56a25.6 25.6 0 0 0 26.24 24.96h436.8a27.2 27.2 0 0 0 18.56-7.36 25.28 25.28 0 0 0 7.68-17.6V502.4H267.52v231.04z" fill="#FFFFFF" p-id="16219" data-spm-anchor-id="a313x.search_index.0.i23.2c6a3a81MDswpM" class=""></path><path d="M486.72 714.24a20.16 20.16 0 0 1-11.84-3.84l-76.48-59.84a17.28 17.28 0 0 1-5.44-19.84 18.56 18.56 0 0 1 17.6-12.16 20.48 20.48 0 0 1 11.84 4.16l64 48.32 113.6-123.52a18.88 18.88 0 0 1 18.56-7.04 17.92 17.92 0 0 1 9.92 32l-125.76 136a17.92 17.92 0 0 1-14.08 6.08z" fill="#FFFFFF" p-id="16220"></path></svg>