<?xml version="1.0" standalone="no"?><!DOCTYPE svg PUBLIC "-//W3C//DTD SVG 1.1//EN" "http://www.w3.org/Graphics/SVG/1.1/DTD/svg11.dtd"><svg t="1700616465206" class="icon" viewBox="0 0 1024 1024" version="1.1" xmlns="http://www.w3.org/2000/svg" p-id="21898" xmlns:xlink="http://www.w3.org/1999/xlink" width="200" height="200"><path d="M186.24 0h651.52Q1024 0 1024 186.24v651.52Q1024 1024 837.76 1024H186.24Q0 1024 0 837.76V186.24Q0 0 186.24 0z" fill="#549df8" p-id="21899" data-spm-anchor-id="a313x.search_index.0.i41.2c6a3a81MDswpM" class="selected"></path><path d="M803.84 755.84A44.16 44.16 0 0 1 759.68 800H272a44.16 44.16 0 0 1-44.16-44.16v-320a11.2 11.2 0 0 1 11.2-11.2h553.6a11.2 11.2 0 0 1 11.2 11.2zM534.08 235.2A11.2 11.2 0 0 1 544 224h120.96a44.8 44.8 0 0 1 39.04 18.56l85.12 119.04a11.52 11.52 0 0 1 0 11.52 11.2 11.2 0 0 1-9.6 6.08H544a10.88 10.88 0 0 1-11.2-11.2zM236.48 361.6l85.12-119.04A44.16 44.16 0 0 1 357.44 224H480a11.2 11.2 0 0 1 10.88 11.2v132.8a11.2 11.2 0 0 1-10.88 11.2H245.44a11.2 11.2 0 0 1-9.6-6.08 10.56 10.56 0 0 1 0.64-11.52z" fill="#FFFFFF" p-id="21900"></path><path d="M657.28 635.84h-41.92v-113.6a26.56 26.56 0 0 0-52.48 0v113.6h-41.92a5.12 5.12 0 0 0-5.12 4.48 5.12 5.12 0 0 0 0 2.88l68.16 78.72a6.4 6.4 0 0 0 7.36 0l68.16-78.72a4.48 4.48 0 0 0 0-6.4 6.08 6.08 0 0 0-2.24-0.96zM374.4 587.52H416v113.6a26.56 26.56 0 0 0 52.48 0v-113.6H512a4.8 4.8 0 0 0 5.12-4.48 5.12 5.12 0 0 0 0-2.88L448 501.44a6.4 6.4 0 0 0-7.36 0l-68.16 78.72a4.48 4.48 0 0 0 0 6.4 6.08 6.08 0 0 0 1.92 0.96z" fill="#549df8" p-id="21901" data-spm-anchor-id="a313x.search_index.0.i44.2c6a3a81MDswpM" class="selected"></path></svg>