<?xml version="1.0" standalone="no"?><!DOCTYPE svg PUBLIC "-//W3C//DTD SVG 1.1//EN" "http://www.w3.org/Graphics/SVG/1.1/DTD/svg11.dtd"><svg t="1700118291339" class="icon" viewBox="0 0 1024 1024" version="1.1" xmlns="http://www.w3.org/2000/svg" p-id="1136" xmlns:xlink="http://www.w3.org/1999/xlink" width="200" height="200"><path d="M849.170732 0c97.404878 0 174.829268 77.42439 174.829268 174.829268v674.341464c0 97.404878-77.42439 174.829268-174.829268 174.829268H174.829268c-97.404878 0-174.829268-77.42439-174.829268-174.829268V174.829268c0-97.404878 77.42439-174.829268 174.829268-174.829268h674.341464zM467.043902 259.746341h-27.47317v202.302439l-122.380488-122.380487-37.463415 37.463414 147.356098 147.356098-147.356098 147.356097 37.463415 37.463415 122.380488-122.380488v202.302439h27.47317l152.35122-152.351219-114.887805-112.390244 114.887805-114.887805-152.35122-149.853659z m27.473171 329.678049l49.95122 49.95122-49.95122 49.951219v-99.902439z m224.780488-204.8l-32.468293 32.468293c17.482927 32.468293 24.97561 67.434146 24.97561 107.395122s-9.990244 74.926829-24.97561 107.395122l32.468293 32.468293c24.97561-39.960976 39.960976-89.912195 39.960976-139.863415 0-52.44878-14.985366-99.902439-39.960976-139.863415z m-77.42439 77.42439L579.434146 524.487805l62.439025 62.439024c7.492683-19.980488 12.487805-39.960976 12.487805-62.439024-2.497561-22.478049-4.995122-42.458537-12.487805-62.439025z m-147.356098-99.902439l49.95122 49.95122-49.95122 49.951219v-99.902439z" p-id="1137" fill="#909399"></path></svg>