<?xml version="1.0" standalone="no"?><!DOCTYPE svg PUBLIC "-//W3C//DTD SVG 1.1//EN" "http://www.w3.org/Graphics/SVG/1.1/DTD/svg11.dtd"><svg t="1700810038939" class="icon" viewBox="0 0 1024 1024" version="1.1" xmlns="http://www.w3.org/2000/svg" p-id="11125" xmlns:xlink="http://www.w3.org/1999/xlink" width="200" height="200"><path d="M981.333333 224v661.333333a53.393333 53.393333 0 0 1-53.333333 53.333334H96a53.393333 53.393333 0 0 1-53.333333-53.333334V224a53.393333 53.393333 0 0 1 53.333333-53.333333h80a10.713333 10.713333 0 0 0 8.533333-4.266667L229.333333 106.666667a53.58 53.58 0 0 1 42.666667-21.333334h138.666667a53.58 53.58 0 0 1 42.666666 21.333334l44.8 59.733333A10.713333 10.713333 0 0 0 506.666667 170.666667h421.333333a53.393333 53.393333 0 0 1 53.333333 53.333333z m-348.666666 451.333333a170.666667 170.666667 0 1 0-120.666667 50 169.553333 169.553333 0 0 0 120.666667-50z m7.333333-120.666666c0 70.58-57.42 128-128 128s-128-57.42-128-128 57.42-128 128-128 128 57.42 128 128z m213.333333-234.666667a21.333333 21.333333 0 0 0-21.333333-21.333333h-85.333333a21.333333 21.333333 0 0 0 0 42.666666h85.333333a21.333333 21.333333 0 0 0 21.333333-21.333333z" fill="#549df8" p-id="11126"></path></svg>